<svg width="35" height="36" viewBox="0 0 35 36" fill="none" xmlns="http://www.w3.org/2000/svg">
<circle cx="17.5" cy="18" r="14.5" fill="#1DF0FF"/>
<path fill-rule="evenodd" clip-rule="evenodd" d="M17.5 35.5C27.1648 35.5 35 27.6648 35 18C35 8.33523 27.1648 0.5 17.5 0.5C7.83523 0.5 0 8.33523 0 18C0 27.6648 7.83523 35.5 17.5 35.5ZM17.5 32.3182C19.3803 32.3182 21.2422 31.9478 22.9793 31.2283C24.7165 30.5087 26.2949 29.454 27.6245 28.1245C28.954 26.7949 30.0087 25.2165 30.7283 23.4793C31.4478 21.7422 31.8182 19.8803 31.8182 18C31.8182 16.1197 31.4478 14.2578 30.7283 12.5207C30.0087 10.7835 28.954 9.20508 27.6245 7.87552C26.2949 6.54595 24.7165 5.49128 22.9793 4.77172C21.2422 4.05217 19.3803 3.68182 17.5 3.68182C13.7026 3.68182 10.0607 5.19034 7.37552 7.87552C4.69034 10.5607 3.18182 14.2026 3.18182 18C3.18182 21.7974 4.69034 25.4393 7.37552 28.1245C10.0607 30.8097 13.7026 32.3182 17.5 32.3182Z" fill="#1DF0FF"/>
<path d="M11.8312 24.5521C11.8312 24.5521 8.53906 15.773 8.53906 11.3834C8.53906 6.9938 10.7339 6.9938 10.7339 6.9938C12.9286 6.30289 14.026 6.78805 14.026 8.09119C14.026 9.18859 12.9286 9.18859 12.9286 11.3834C12.9286 13.5782 16.943 17.3082 16.943 20.6004C16.943 23.8926 11.8312 24.5521 11.8312 24.5521ZM17.3182 23.4547C16.2208 23.4547 12.9286 26.1982 12.9286 26.1982C12.5994 26.4177 12.7092 26.7469 12.9286 27.0761C12.9286 27.0761 14.026 29.0514 16.2208 29.0514H22.8052C24.0123 29.0514 25 28.0638 25 26.8567V25.7593C25 24.5521 24.0123 23.5645 22.8052 23.5645H17.3182V23.4547Z" fill="#4C4C4C"/>
</svg>
