<svg width="35" height="36" viewBox="0 0 35 36" fill="none" xmlns="http://www.w3.org/2000/svg">
<circle cx="17.5" cy="18" r="14.5" fill="#1DF0FF"/>
<path fill-rule="evenodd" clip-rule="evenodd" d="M17.5 35.5C27.1648 35.5 35 27.6648 35 18C35 8.33523 27.1648 0.5 17.5 0.5C7.83523 0.5 0 8.33523 0 18C0 27.6648 7.83523 35.5 17.5 35.5ZM17.5 32.3182C19.3803 32.3182 21.2422 31.9478 22.9793 31.2283C24.7165 30.5087 26.2949 29.454 27.6245 28.1245C28.954 26.7949 30.0087 25.2165 30.7283 23.4793C31.4478 21.7422 31.8182 19.8803 31.8182 18C31.8182 16.1197 31.4478 14.2578 30.7283 12.5207C30.0087 10.7835 28.954 9.20508 27.6245 7.87552C26.2949 6.54595 24.7165 5.49128 22.9793 4.77172C21.2422 4.05217 19.3803 3.68182 17.5 3.68182C13.7026 3.68182 10.0607 5.19034 7.37552 7.87552C4.69034 10.5607 3.18182 14.2026 3.18182 18C3.18182 21.7974 4.69034 25.4393 7.37552 28.1245C10.0607 30.8097 13.7026 32.3182 17.5 32.3182Z" fill="#1DF0FF"/>
<path d="M11.709 19.1388C11.3177 18.7481 11.3177 18.114 11.709 17.7233L11.9057 17.527C12.296 17.1374 12.9282 17.1374 13.3186 17.527L15.4754 19.6799C15.8657 20.0695 16.4979 20.0695 16.8883 19.6799L25.3784 11.2052C25.7688 10.8155 26.4009 10.8155 26.7913 11.2052L26.9879 11.4014C27.3793 11.7921 27.3793 12.4263 26.9879 12.8169L16.8883 22.8983C16.4979 23.2879 15.8657 23.2879 15.4754 22.8983L11.709 19.1388ZM26.3004 23.2952C25.9454 22.5157 24.8388 22.514 24.4815 23.2924L24.0984 24.127C23.9982 24.3453 23.8227 24.5203 23.604 24.6199L22.7784 24.9958C21.999 25.3508 21.9973 26.4575 22.7757 26.8148L23.6068 27.1962C23.8238 27.2958 23.9979 27.4698 24.0978 27.6866L24.4821 28.5206C24.8399 29.2974 25.9443 29.2957 26.2998 28.5179L26.6785 27.6894C26.7784 27.4708 26.9536 27.2956 27.1721 27.1956L28.0037 26.8153C28.7837 26.4586 28.7821 25.3497 28.0009 24.9953L27.1748 24.6205C26.9547 24.5206 26.7781 24.3443 26.6779 24.1242L26.3004 23.2952Z" fill="#4C4C4C" stroke="#4C4C4C"/>
<mask id="path-4-inside-1_11380_8882" fill="white">
<path d="M20.2938 29.6555C20.428 30.1912 20.1028 30.7385 19.558 30.8294C17.9638 31.0955 16.3297 31.0504 14.7469 30.693C12.8383 30.2621 11.0574 29.3891 9.54776 28.1443C8.03809 26.8995 6.84173 25.3176 6.05497 23.5261C5.26821 21.7345 4.91303 19.7833 5.018 17.8294C5.12297 15.8755 5.68517 13.9736 6.65935 12.2766C7.63353 10.5797 8.99248 9.13513 10.6268 8.05923C12.2612 6.98334 14.1253 6.30615 16.0691 6.08217C17.6811 5.89642 19.3106 6.02665 20.8672 6.46206C21.3991 6.61083 21.6638 7.1898 21.473 7.70808L21.0328 8.90374C20.842 9.42202 20.2679 9.68179 19.732 9.54817C18.6603 9.28096 17.5466 9.2077 16.4439 9.33475C15.0092 9.50007 13.6334 9.99988 12.4271 10.794C11.2208 11.5881 10.2178 12.6542 9.49883 13.9067C8.77982 15.1592 8.36487 16.5629 8.2874 18.0051C8.20992 19.4472 8.47207 20.8873 9.05276 22.2096C9.63344 23.5319 10.5164 24.6994 11.6307 25.6182C12.7449 26.5369 14.0593 27.1813 15.468 27.4993C16.5507 27.7438 17.6659 27.7903 18.7601 27.6394C19.3072 27.564 19.8501 27.8838 19.9843 28.4195L20.2938 29.6555Z"/>
</mask>
<path d="M20.2938 29.6555C20.428 30.1912 20.1028 30.7385 19.558 30.8294C17.9638 31.0955 16.3297 31.0504 14.7469 30.693C12.8383 30.2621 11.0574 29.3891 9.54776 28.1443C8.03809 26.8995 6.84173 25.3176 6.05497 23.5261C5.26821 21.7345 4.91303 19.7833 5.018 17.8294C5.12297 15.8755 5.68517 13.9736 6.65935 12.2766C7.63353 10.5797 8.99248 9.13513 10.6268 8.05923C12.2612 6.98334 14.1253 6.30615 16.0691 6.08217C17.6811 5.89642 19.3106 6.02665 20.8672 6.46206C21.3991 6.61083 21.6638 7.1898 21.473 7.70808L21.0328 8.90374C20.842 9.42202 20.2679 9.68179 19.732 9.54817C18.6603 9.28096 17.5466 9.2077 16.4439 9.33475C15.0092 9.50007 13.6334 9.99988 12.4271 10.794C11.2208 11.5881 10.2178 12.6542 9.49883 13.9067C8.77982 15.1592 8.36487 16.5629 8.2874 18.0051C8.20992 19.4472 8.47207 20.8873 9.05276 22.2096C9.63344 23.5319 10.5164 24.6994 11.6307 25.6182C12.7449 26.5369 14.0593 27.1813 15.468 27.4993C16.5507 27.7438 17.6659 27.7903 18.7601 27.6394C19.3072 27.564 19.8501 27.8838 19.9843 28.4195L20.2938 29.6555Z" fill="#4C4C4C" stroke="#4C4C4C" stroke-width="3" mask="url(#path-4-inside-1_11380_8882)"/>
</svg>
