<svg width="36" height="26" viewBox="0 0 36 26" fill="none" xmlns="http://www.w3.org/2000/svg">
<path fill-rule="evenodd" clip-rule="evenodd" d="M32.0676 15.8822V13.6846C32.0676 12.5562 31.7241 11.7096 30.9224 10.2988L26.9139 3.52669C25.7686 1.26931 24.0507 0.140625 22.9055 0.140625H3.43582C1.35715 0.140625 0 1.47812 0 3.52669V19.2716C0 21.3202 1.35715 22.7144 3.43582 22.7144H3.51132C3.50381 22.5968 3.5 22.4782 3.5 22.3586C3.5 19.3211 5.96243 16.8586 9 16.8586C12.0376 16.8586 14.5 19.3211 14.5 22.3586C14.5 22.4782 14.4962 22.5968 14.4887 22.7144H25.5113C25.5038 22.5968 25.5 22.4782 25.5 22.3586C25.5 19.3211 27.9624 16.8586 31 16.8586C32.5611 16.8586 33.9702 17.509 34.9713 18.5536C34.4048 17.3228 33.4155 16.3631 32.0676 15.8822ZM27.3497 12.2946C28.0728 13.4798 27.2198 14.9995 25.8314 14.9995H18V4.5267C18 3.97441 18.4477 3.52669 19 3.52669H21.4387C21.7873 3.52669 22.1108 3.70825 22.2924 4.00585L27.3497 12.2946Z" fill="#1DF0FF"/>
<circle cx="9" cy="22.3594" r="3.5" fill="#1DF0FF"/>
<circle cx="31" cy="22.3594" r="3.5" fill="#1DF0FF"/>
</svg>
