<svg width="24" height="20" viewBox="0 0 24 20" fill="none" xmlns="http://www.w3.org/2000/svg">
<path d="M19.4636 0C19.1467 0 18.8899 0.256824 18.8899 0.573633C18.8899 0.890442 19.1467 1.14727 19.4636 1.14727H22.6372C22.954 1.14727 23.2109 0.890442 23.2109 0.573633C23.2109 0.256824 22.954 0 22.6372 0H19.4636ZM3.69445 0.009797C3.17412 0.0115954 2.66409 0.0950111 2.23452 0.196516C1.62194 0.341264 1.40393 1.0629 1.89596 1.45547C3.99434 3.12972 7.21013 2.0155 12.4733 7.43728C12.7094 7.68048 13.0534 7.79902 13.387 7.73954L14.2676 7.58259C14.4576 7.54873 14.6337 7.46059 14.7747 7.32883L15.376 6.76707C15.889 6.28781 15.7626 5.44351 15.131 5.13702C12.6806 3.94793 7.44994 1.40857 5.22586 0.320203C4.75148 0.0902347 4.21523 0.00825013 3.69445 0.009797ZM20.5373 1.65773C20.3793 1.65773 20.2512 1.78586 20.2512 1.94391C20.2512 2.10195 20.3793 2.23008 20.5373 2.23008H21.5737C21.7318 2.23008 21.8599 2.10195 21.8599 1.94391C21.8599 1.78586 21.7318 1.65773 21.5737 1.65773H20.5373ZM20.154 2.85398C19.5022 2.85398 19.0246 3.46751 19.1845 4.09937L19.8952 6.90702C19.9731 7.21491 20.1927 7.46748 20.4868 7.58749L21.8124 8.12851C22.4701 8.39697 23.1902 7.9131 23.1902 7.20265V3.85399C23.1902 3.3017 22.7425 2.85398 22.1902 2.85398H20.154ZM19.1772 6.79477C18.9881 6.04661 18.0588 5.78551 17.5077 6.32571L15.3197 8.47053C15.1734 8.61395 14.9907 8.70828 14.7886 8.74205C13.2761 8.99484 6.53112 10.1224 2.87358 10.7379C1.50047 10.9699 0.494484 12.1559 0.494484 13.548V15.2443C0.494484 15.5736 0.656646 15.8818 0.928062 16.0684L2.40906 17.0863C2.68048 17.2728 2.84264 17.5811 2.84264 17.9104V18.0343C2.84264 18.5866 3.29036 19.0343 3.84264 19.0343H17.4011C17.9669 19.0343 18.42 18.5653 18.4005 17.9998L18.3954 17.8529C18.3776 17.3363 18.7565 16.8912 19.2693 16.8263L19.6275 16.781C20.1368 16.7166 20.5146 16.277 20.5017 15.7638L20.3262 8.78067C20.3182 8.46262 20.1238 8.17907 19.83 8.05696C19.5953 7.9594 19.4204 7.75684 19.3581 7.51043L19.1772 6.79477ZM22.6099 9.18886C21.9663 8.92702 21.2653 9.41113 21.2823 10.1058L21.4409 16.5918C21.4534 17.1038 21.0772 17.5424 20.5693 17.608L19.9145 17.6926C19.5703 17.7371 19.3162 18.0358 19.3275 18.3827C19.3394 18.7459 19.6373 19.0343 20.0008 19.0343H22.2109C22.7631 19.0343 23.2109 18.5866 23.2109 18.0343V10.0822C23.2109 9.68989 22.9732 9.33669 22.6099 9.18886ZM3.70992 12.4034H15.4816C16.2396 12.4034 16.8532 13.0221 16.8532 13.7801C16.8532 14.538 16.2396 15.1568 15.4816 15.1568H3.70992C2.95144 15.1568 2.33527 14.538 2.33527 13.7801C2.33527 13.0221 2.95144 12.4034 3.70992 12.4034ZM1.49 17.2975C0.861322 16.8599 0 17.3097 0 18.0758C0 18.5994 0.424538 19.024 0.948231 19.024H1.32546C1.78377 19.024 2.15531 18.6524 2.15531 18.1941C2.15531 17.9226 2.02246 17.6682 1.7996 17.5131L1.49 17.2975Z" fill="#1DF0FF"/>
</svg>
