<svg width="35" height="36" viewBox="0 0 35 36" fill="none" xmlns="http://www.w3.org/2000/svg">
<circle cx="17.5" cy="18" r="14.5" fill="#1DF0FF"/>
<path fill-rule="evenodd" clip-rule="evenodd" d="M16.9061 13.2275C16.3538 13.2275 15.9061 13.6753 15.9061 14.2275V19.1544C15.9061 19.5783 15.6335 19.9471 15.2591 20.1457C14.4817 20.5582 13.8291 21.1801 13.3791 21.947C12.8092 22.9184 12.601 24.0601 12.7914 25.1702C12.9818 26.2802 13.5585 27.2873 14.4196 28.0132C15.2807 28.7392 16.3707 29.1374 17.497 29.1374C18.6233 29.1374 19.7133 28.7392 20.5744 28.0132C21.4355 27.2873 22.0122 26.2802 22.2026 25.1702C22.393 24.0601 22.1848 22.9184 21.6148 21.947C21.1648 21.1801 20.5122 20.5582 19.7348 20.1457C19.3605 19.9471 19.0879 19.5783 19.0879 19.1544V14.2275C19.0879 13.6753 18.6402 13.2275 18.0879 13.2275H16.9061ZM15.9061 24.3639C15.9061 23.942 16.0737 23.5373 16.372 23.239C16.6704 22.9406 17.075 22.773 17.497 22.773C17.9189 22.773 18.3236 22.9406 18.6219 23.239C18.9203 23.5373 19.0879 23.942 19.0879 24.3639C19.0879 24.7858 18.9203 25.1905 18.6219 25.4888C18.3236 25.7872 17.9189 25.9548 17.497 25.9548C17.075 25.9548 16.6704 25.7872 16.372 25.4888C16.0737 25.1905 15.9061 24.7858 15.9061 24.3639Z" fill="#4C4C4C"/>
<path d="M17.5006 6.86426C20.4542 6.86426 23.2867 8.03755 25.3752 10.126C27.4637 12.2145 28.637 15.0471 28.637 18.0006V18.5915C28.637 19.1438 28.1893 19.5915 27.637 19.5915H26.4552C25.9029 19.5915 25.4552 19.1438 25.4552 18.5915V18.0006C25.4552 15.8909 24.6171 13.8677 23.1253 12.3759C21.6336 10.8841 19.6103 10.0461 17.5006 10.0461C15.3909 10.0461 13.3677 10.8841 11.8759 12.3759C10.3841 13.8677 9.54608 15.8909 9.54608 18.0006V18.5915C9.54608 19.1438 9.09836 19.5915 8.54608 19.5915H7.36426C6.81197 19.5915 6.36426 19.1438 6.36426 18.5915V18.0006C6.36426 15.0471 7.53755 12.2145 9.62602 10.126C11.7145 8.03755 14.5471 6.86426 17.5006 6.86426Z" fill="#4C4C4C"/>
<path fill-rule="evenodd" clip-rule="evenodd" d="M17.5 35.5C27.1648 35.5 35 27.6648 35 18C35 8.33523 27.1648 0.5 17.5 0.5C7.83523 0.5 0 8.33523 0 18C0 27.6648 7.83523 35.5 17.5 35.5ZM17.5 32.3182C19.3803 32.3182 21.2422 31.9478 22.9793 31.2283C24.7165 30.5087 26.2949 29.454 27.6245 28.1245C28.954 26.7949 30.0087 25.2165 30.7283 23.4793C31.4478 21.7422 31.8182 19.8803 31.8182 18C31.8182 16.1197 31.4478 14.2578 30.7283 12.5207C30.0087 10.7835 28.954 9.20508 27.6245 7.87552C26.2949 6.54595 24.7165 5.49128 22.9793 4.77172C21.2422 4.05217 19.3803 3.68182 17.5 3.68182C13.7026 3.68182 10.0607 5.19034 7.37552 7.87552C4.69034 10.5607 3.18182 14.2026 3.18182 18C3.18182 21.7974 4.69034 25.4393 7.37552 28.1245C10.0607 30.8097 13.7026 32.3182 17.5 32.3182Z" fill="#1DF0FF"/>
</svg>
