<svg width="31" height="35" viewBox="0 0 31 35" fill="none" xmlns="http://www.w3.org/2000/svg">
<path d="M14.5606 1.15393C15.3593 0.860038 15.5 0.686542 16.7356 1.24709L29.1212 6.7635C30.4118 7.2394 30.9434 8.25698 31 9.56864V18.0701C30.9999 20.8145 30.5486 23.1038 29.1212 25.462C26.292 30.1361 21.6209 32.0915 16.9091 34.3436C16.591 34.4998 15.9697 34.8111 15.5 34.8111C15.0303 34.8111 14.4645 34.5018 14.0909 34.3436C9.90733 32.2623 5.10305 30.3634 2.45245 26.2988C0.84513 23.834 0.0495705 20.9949 0 18.0701V9.56864C2.0302e-05 8.26785 0.713421 7.30545 1.87879 6.7635L14.5606 1.15393Z" fill="#4C4C4C"/>
<path d="M14.5606 1.15393C15.3593 0.860038 15.5 0.686542 16.7356 1.24709L29.1212 6.7635C30.4118 7.2394 30.9434 8.25698 31 9.56864V18.0701C30.9999 20.8145 30.5486 23.1038 29.1212 25.462C26.292 30.1361 21.6209 32.0915 16.9091 34.3436C16.591 34.4998 15.9697 34.8111 15.5 34.8111C15.0303 34.8111 14.4645 34.5018 14.0909 34.3436C9.90733 32.2623 5.10305 30.3634 2.45245 26.2988C0.84513 23.834 0.0495705 20.9949 0 18.0701V9.56864C2.0302e-05 8.26785 0.713421 7.30545 1.87879 6.7635L14.5606 1.15393Z" fill="#1DF0FF"/>
<path d="M8.70904 19.6388C8.31765 19.2481 8.31765 18.614 8.70904 18.2233L8.90566 18.027C9.29603 17.6374 9.92821 17.6374 10.3186 18.027L12.4754 20.1799C12.8657 20.5695 13.4979 20.5695 13.8883 20.1799L22.3784 11.7052C22.7688 11.3155 23.4009 11.3155 23.7913 11.7052L23.9879 11.9014C24.3793 12.2921 24.3793 12.9263 23.9879 13.3169L13.8883 23.3983C13.4979 23.7879 12.8657 23.7879 12.4754 23.3983L8.70904 19.6388Z" fill="#4C4C4C" stroke="#4C4C4C"/>
</svg>
