<svg width="35" height="36" viewBox="0 0 35 36" fill="none" xmlns="http://www.w3.org/2000/svg">
<path d="M11.4639 15.125H23.5655C24.1178 15.125 24.5655 15.5727 24.5655 16.125V27.625C24.5655 28.1773 24.1178 28.625 23.5655 28.625H16.8C16.5296 28.625 16.2707 28.5155 16.0824 28.3214L13.3962 25.5536C13.2079 25.3595 12.949 25.25 12.6786 25.25H10.8262C10.2739 25.25 9.8262 24.8023 9.8262 24.25V16.8125M10.8262 5C10.2739 5 9.8262 5.44772 9.8262 6V7.375C9.8262 7.92728 10.2739 8.375 10.8262 8.375H13.7393C14.2916 8.375 14.7393 8.82272 14.7393 9.375V10.75C14.7393 11.3023 14.2916 11.75 13.7393 11.75H10.2492C9.97881 11.75 9.71992 11.8595 9.5316 12.0536L6.83319 14.834C6.65209 15.0206 6.5508 15.2704 6.5508 15.5305V19.1875C6.5508 19.7398 6.10309 20.1875 5.5508 20.1875H4.2754C3.72312 20.1875 3.2754 19.7398 3.2754 19.1875V16.125C3.2754 15.5727 2.82769 15.125 2.2754 15.125H1C0.447716 15.125 0 15.5727 0 16.125V27.625C0 28.1773 0.447715 28.625 1 28.625H2.2754C2.82768 28.625 3.2754 28.1773 3.2754 27.625V24.5625C3.2754 24.0102 3.72312 23.5625 4.2754 23.5625H5.5508C6.10309 23.5625 6.5508 24.0102 6.5508 24.5625V27.625C6.5508 28.1773 6.99852 28.625 7.5508 28.625H11.0409C11.3113 28.625 11.5702 28.7345 11.7585 28.9286L14.4447 31.6964C14.633 31.8905 14.8919 32 15.1623 32H26.8409C27.3932 32 27.8409 31.5523 27.8409 31V26.25C27.8409 25.6977 28.2886 25.25 28.8409 25.25H30.1163C30.6686 25.25 31.1163 25.6977 31.1163 26.25V29.3125C31.1163 29.8648 31.564 30.3125 32.1163 30.3125H34C34.5523 30.3125 35 29.8648 35 29.3125V14.4375C35 13.8852 34.5523 13.4375 34 13.4375H32.1163C31.564 13.4375 31.1163 13.8852 31.1163 14.4375V17.5C31.1163 18.0523 30.6686 18.5 30.1163 18.5H28.8409C28.2886 18.5 27.8409 18.0523 27.8409 17.5V12.75C27.8409 12.1977 27.3932 11.75 26.8409 11.75H19.0147C18.4624 11.75 18.0147 11.3023 18.0147 10.75V9.375C18.0147 8.82272 18.4624 8.375 19.0147 8.375H21.9278C22.4801 8.375 22.9278 7.92728 22.9278 7.375V6C22.9278 5.44772 22.4801 5 21.9278 5H10.8262Z" fill="#1DF0FF"/>
<path d="M11 14L9.5 17L9 25V27L12 28C13.2 28.4 12.8333 28.5 12.5 28.5L14 29.5C14.1667 29.6667 15 30 17 30C19.5 30 18.5 30.5 19.5 30.5C20.5 30.5 24 31.5 25 31.5C26 31.5 25.5 30.5 25.5 30C25.5 29.5 26.5 27.5 26.5 26C26.5 24.5 27 21.5 27 21C27 20.6 26.6667 16.5 26.5 14.5L25 14H17.5H11Z" fill="#1DF0FF"/>
</svg>
