<svg width="61" height="61" viewBox="0 0 61 61" fill="none" xmlns="http://www.w3.org/2000/svg">
<rect x="0.943359" y="0.0322266" width="60" height="60" rx="10" fill="#4790EE"/>
<path d="M20.87 36.5538C22.16 38.546 24.0119 40.1109 26.1913 41.0506C28.3707 41.9903 30.7798 42.2626 33.114 41.8331C35.4482 41.4037 37.6026 40.2917 39.3048 38.6378C41.007 36.9838 42.1806 34.8623 42.677 32.5414C43.1735 30.2206 42.9706 27.8046 42.094 25.5991C41.2174 23.3935 39.7065 21.4974 37.7522 20.1506C35.798 18.8037 33.4883 18.0666 31.1152 18.0325C28.7421 17.9983 26.4121 18.6687 24.4199 19.9587" stroke="white" stroke-width="4" stroke-linecap="round"/>
<path d="M28.4799 23.1176L21.8734 23.2569C21.4288 23.2662 21.0607 22.9134 21.0514 22.4688L20.9121 15.8623" stroke="white" stroke-width="4" stroke-linecap="round"/>
</svg>
