<svg width="60" height="60" viewBox="0 0 60 60" fill="none" xmlns="http://www.w3.org/2000/svg">
<path d="M43.3878 32.6806V30.701C43.3878 29.6845 43.0783 28.9218 42.3561 27.6509L38.7451 21.5503C37.7134 19.5168 36.1659 18.5 35.1342 18.5H17.5951C15.7226 18.5 14.5 19.7049 14.5 21.5503V35.734C14.5 37.5794 15.7226 38.8354 17.5951 38.8354C18.3101 40.7815 19.9974 42.3941 22.7537 42.3941C25.3329 42.3941 27.1972 40.7815 27.9122 38.8354H36.1659C36.5675 39.9527 37.7836 41.148 38.8212 41.7473C39.8589 42.3466 41.0781 42.5652 42.2635 42.3645C43.4489 42.1637 44.5241 41.5566 45.2993 40.6503C46.0745 39.7441 46.4998 38.597 46.5 37.4116C46.483 35.2307 45.3625 33.3852 43.3878 32.6806ZM38.5606 27.9699C39.3116 29.154 38.4609 30.701 37.0587 30.701H35.1342V22.5671L38.5606 27.9699ZM22.6505 39.0893C21.7142 39.0893 20.9482 38.3343 20.9482 37.4116C20.9482 36.4889 21.7142 35.734 22.6505 35.734C23.5868 35.734 24.3528 36.4889 24.3528 37.4116C24.3528 38.3343 23.5868 39.0893 22.6505 39.0893ZM27.9122 35.734V35.734C27.9122 34.0776 26.5694 32.7348 24.913 32.7348H17.5436L17.5693 21.5503H32.039L32.0133 35.734H27.9122ZM41.376 39.0893C40.4397 39.0893 39.6737 38.3343 39.6737 37.4116C39.6737 36.4889 40.4397 35.734 41.376 35.734C42.3123 35.734 43.0783 36.4889 43.0783 37.4116C43.0783 38.3343 42.3123 39.0893 41.376 39.0893Z" fill="white"/>
</svg>
