<svg width="60" height="60" viewBox="0 0 60 60" fill="none" xmlns="http://www.w3.org/2000/svg">
<path d="M34.5869 21L37.9922 23.0361L35.2891 28H24.7109L22.0068 23.0361L25.4131 21H34.5869Z" stroke="white" stroke-width="3"/>
<path d="M13.7317 37.1894C13.9926 37.6931 13.7827 38.3127 13.2695 38.5542L10.0511 40.0686C9.54687 40.3059 8.94596 40.0852 8.71515 39.5779L8.368 38.815C8.15811 38.3537 8.32645 37.8084 8.75982 37.5457L11.7695 35.7213C12.2643 35.4213 12.9097 35.6027 13.1758 36.1165L13.7317 37.1894Z" fill="white"/>
<path d="M23.4498 33.02C23.7427 33.5418 23.5148 34.2024 22.9625 34.4326L15.9614 37.3503C15.4814 37.5504 14.9281 37.3491 14.6888 36.8873L13.9012 35.3669C13.6738 34.9279 13.8013 34.3886 14.2013 34.098L20.2905 29.673C20.7746 29.3212 21.4574 29.4706 21.7503 29.9925L23.4498 33.02Z" fill="white"/>
<path d="M46.487 37.2889C46.2261 37.7923 46.4356 38.4117 46.9485 38.6535L49.9486 40.0677C50.4529 40.3054 51.0542 40.0848 51.2851 39.5773L51.6311 38.8171C51.8414 38.3549 51.6719 37.8085 51.2371 37.5464L48.4292 35.854C47.9345 35.5559 47.2908 35.7376 47.0251 36.2504L46.487 37.2889Z" fill="white"/>
<path d="M36.5498 33.0204C36.257 33.542 36.4845 34.2022 37.0364 34.4327L44.2572 37.4484C44.7373 37.6489 45.2909 37.4477 45.5303 36.9858L46.298 35.505C46.5256 35.0658 46.3979 34.5261 45.9975 34.2355L39.7094 29.6717C39.2252 29.3203 38.5428 29.4698 38.25 29.9915L36.5498 33.0204Z" fill="white"/>
<mask id="path-3-inside-1_11823_5860" fill="white">
<path d="M26.1249 33.5H33.8617C34.251 33.5 34.6049 33.2741 34.7687 32.921L35.0008 32.421C35.3085 31.7582 34.8245 31 34.0938 31H25.8807C25.1414 31 24.6577 31.7746 24.9822 32.4389L25.2264 32.9389C25.3941 33.2822 25.7428 33.5 26.1249 33.5Z"/>
</mask>
<path d="M34.7687 32.921L37.4899 34.1841L37.4899 34.1841L34.7687 32.921ZM35.0008 32.421L32.2797 31.158L32.2797 31.158L35.0008 32.421ZM24.9822 32.4389L27.6778 31.1222L27.6778 31.1222L24.9822 32.4389ZM25.2264 32.9389L22.5308 34.2556L22.5308 34.2556L25.2264 32.9389ZM33.8617 33.5V36.5H26.1249V33.5V30.5H33.8617V33.5ZM34.7687 32.921L32.0476 31.658L32.2797 31.158L35.0008 32.421L37.722 33.6841L37.4899 34.1841L34.7687 32.921ZM24.9822 32.4389L27.6778 31.1222L27.922 31.6222L25.2264 32.9389L22.5308 34.2556L22.2866 33.7556L24.9822 32.4389ZM34.0938 31V34H25.8807V31V28H34.0938V31ZM24.9822 32.4389L22.2866 33.7556C20.9886 31.0984 22.9233 28 25.8807 28V31V34C27.3594 34 28.3268 32.4508 27.6778 31.1222L24.9822 32.4389ZM35.0008 32.421L32.2797 31.158C31.6644 32.4836 32.6323 34 34.0938 34V31V28C37.0167 28 38.9526 31.0328 37.722 33.6841L35.0008 32.421ZM26.1249 33.5V36.5C24.5965 36.5 23.2017 35.629 22.5308 34.2556L25.2264 32.9389L27.922 31.6222C27.5866 30.9355 26.8891 30.5 26.1249 30.5V33.5ZM33.8617 33.5V30.5C33.0831 30.5 32.3754 30.9518 32.0476 31.658L34.7687 32.921L37.4899 34.1841C36.8343 35.5964 35.4188 36.5 33.8617 36.5V33.5Z" fill="white" mask="url(#path-3-inside-1_11823_5860)"/>
</svg>
