<svg width="60" height="60" viewBox="0 0 60 60" fill="none" xmlns="http://www.w3.org/2000/svg">
<path d="M16 44C15.4477 44 15 43.5523 15 43V35.3333C15 34.7811 15.4477 34.3333 16 34.3333H17.2222C17.7745 34.3333 18.2222 34.781 18.2222 35.3333V36.108C18.2222 36.9989 19.2994 37.4451 19.9293 36.8151L22.5096 34.2349C22.9001 33.8444 23.5332 33.8444 23.9238 34.2349L24.7651 35.0762C25.1556 35.4667 25.1556 36.0999 24.7651 36.4904L22.1849 39.0707C21.5549 39.7006 22.0011 40.7778 22.892 40.7778H23.6667C24.219 40.7778 24.6667 41.2255 24.6667 41.7778V43C24.6667 43.5523 24.219 44 23.6667 44H16ZM35.3333 44C34.7811 44 34.3333 43.5523 34.3333 43V41.7778C34.3333 41.2255 34.781 40.7778 35.3333 40.7778H36.108C36.9989 40.7778 37.4451 39.7006 36.8151 39.0707L34.2349 36.4904C33.8444 36.0999 33.8444 35.4667 34.2349 35.0762L35.0762 34.2349C35.4667 33.8444 36.0999 33.8444 36.4904 34.2349L39.0707 36.8151C39.7006 37.4451 40.7778 36.9989 40.7778 36.108V35.3333C40.7778 34.781 41.2255 34.3333 41.7778 34.3333H43C43.5523 34.3333 44 34.781 44 35.3333V43C44 43.5523 43.5523 44 43 44H35.3333ZM23.9238 24.7651C23.5333 25.1556 22.9001 25.1556 22.5096 24.7651L19.9293 22.1849C19.2994 21.5549 18.2222 22.0011 18.2222 22.892V23.6667C18.2222 24.219 17.7745 24.6667 17.2222 24.6667H16C15.4477 24.6667 15 24.219 15 23.6667V16C15 15.4477 15.4477 15 16 15H23.6667C24.219 15 24.6667 15.4477 24.6667 16V17.2222C24.6667 17.7745 24.219 18.2222 23.6667 18.2222H22.892C22.0011 18.2222 21.5549 19.2994 22.1849 19.9293L24.7651 22.5096C25.1556 22.9001 25.1556 23.5332 24.7651 23.9238L23.9238 24.7651ZM36.4904 24.7651C36.0999 25.1556 35.4667 25.1556 35.0762 24.7651L34.2349 23.9238C33.8444 23.5332 33.8444 22.9001 34.2349 22.5096L36.8151 19.9293C37.4451 19.2994 36.9989 18.2222 36.108 18.2222H35.3333C34.781 18.2222 34.3333 17.7745 34.3333 17.2222V16C34.3333 15.4477 34.781 15 35.3333 15H43C43.5523 15 44 15.4477 44 16V23.6667C44 24.219 43.5523 24.6667 43 24.6667H41.7778C41.2255 24.6667 40.7778 24.219 40.7778 23.6667V22.892C40.7778 22.0011 39.7006 21.5549 39.0707 22.1849L36.4904 24.7651Z" fill="white"/>
</svg>
