<svg width="60" height="60" viewBox="0 0 60 60" fill="none" xmlns="http://www.w3.org/2000/svg">
<path d="M23.9211 24.9211C24.4733 24.9211 24.9211 24.4733 24.9211 23.9211V16.7632C24.9211 16.2109 24.4733 15.7632 23.9211 15.7632H22.8684C22.3161 15.7632 21.8684 16.2109 21.8684 16.7632V17.3021C21.8684 18.193 20.7913 18.6392 20.1613 18.0092L17.8592 15.7071C17.4687 15.3166 16.8355 15.3166 16.445 15.7071L15.7071 16.445C15.3166 16.8355 15.3166 17.4687 15.7071 17.8592L18.0092 20.1613C18.6392 20.7913 18.193 21.8684 17.3021 21.8684H16.7632C16.2109 21.8684 15.7632 22.3161 15.7632 22.8684V23.9211C15.7632 24.4733 16.2109 24.9211 16.7632 24.9211H23.9211ZM42.2368 24.9211C42.7891 24.9211 43.2368 24.4733 43.2368 23.9211V22.8684C43.2368 22.3161 42.7891 21.8684 42.2368 21.8684H41.6979C40.807 21.8684 40.3608 20.7913 40.9908 20.1613L43.2929 17.8592C43.6834 17.4687 43.6834 16.8355 43.2929 16.445L42.555 15.7071C42.1645 15.3166 41.5313 15.3166 41.1408 15.7071L38.8387 18.0092C38.2087 18.6392 37.1316 18.193 37.1316 17.3021V16.7632C37.1316 16.2109 36.6839 15.7632 36.1316 15.7632H35.0789C34.5267 15.7632 34.0789 16.2109 34.0789 16.7632V23.9211C34.0789 24.4733 34.5267 24.9211 35.0789 24.9211H42.2368ZM16.7632 34.0789C16.2109 34.0789 15.7632 34.5267 15.7632 35.0789V36.1316C15.7632 36.6839 16.2109 37.1316 16.7632 37.1316H17.3021C18.193 37.1316 18.6392 38.2087 18.0092 38.8387L15.7071 41.1408C15.3166 41.5313 15.3166 42.1645 15.7071 42.555L16.445 43.2929C16.8355 43.6834 17.4687 43.6834 17.8592 43.2929L20.1613 40.9908C20.7913 40.3608 21.8684 40.807 21.8684 41.6979V42.2368C21.8684 42.7891 22.3161 43.2368 22.8684 43.2368H23.9211C24.4733 43.2368 24.9211 42.7891 24.9211 42.2368V35.0789C24.9211 34.5267 24.4733 34.0789 23.9211 34.0789H16.7632ZM35.0789 34.0789C34.5267 34.0789 34.0789 34.5267 34.0789 35.0789V42.2368C34.0789 42.7891 34.5267 43.2368 35.0789 43.2368H36.1316C36.6839 43.2368 37.1316 42.7891 37.1316 42.2368V41.6979C37.1316 40.807 38.2087 40.3608 38.8387 40.9908L41.1408 43.2929C41.5313 43.6834 42.1645 43.6834 42.555 43.2929L43.2929 42.555C43.6834 42.1645 43.6834 41.5313 43.2929 41.1408L40.9908 38.8387C40.3608 38.2087 40.807 37.1316 41.6979 37.1316H42.2368C42.7891 37.1316 43.2368 36.6839 43.2368 36.1316V35.0789C43.2368 34.5267 42.7891 34.0789 42.2368 34.0789H35.0789Z" fill="white"/>
</svg>
