<svg width="60" height="60" viewBox="0 0 60 60" fill="none" xmlns="http://www.w3.org/2000/svg">
<path d="M19.7923 40.8542C19.7923 41.4064 20.24 41.8542 20.7923 41.8542H23.9798C24.5321 41.8542 24.9798 41.4064 24.9798 40.8542V32.4792C24.9798 31.9269 25.4275 31.4792 25.9798 31.4792H34.3548C34.9071 31.4792 35.3548 31.9269 35.3548 32.4792V40.8542C35.3548 41.4064 35.8025 41.8542 36.3548 41.8542H39.5423C40.0946 41.8542 40.5423 41.4064 40.5423 40.8542V26.7917C40.5423 26.4769 40.3941 26.1805 40.1423 25.9917L30.7673 18.9604C30.4118 18.6937 29.9229 18.6937 29.5673 18.9604L20.1923 25.9917C19.9405 26.1805 19.7923 26.4769 19.7923 26.7917V40.8542ZM17.334 45.3125C16.7817 45.3125 16.334 44.8648 16.334 44.3125V25.0625C16.334 24.7477 16.4822 24.4514 16.734 24.2625L29.5673 14.6375C29.9229 14.3708 30.4118 14.3708 30.7673 14.6375L43.6007 24.2625C43.8525 24.4514 44.0007 24.7477 44.0007 25.0625V44.3125C44.0007 44.8648 43.5529 45.3125 43.0007 45.3125H32.8965C32.3442 45.3125 31.8965 44.8648 31.8965 44.3125V35.9375C31.8965 35.3852 31.4488 34.9375 30.8965 34.9375H29.4382C28.8859 34.9375 28.4382 35.3852 28.4382 35.9375V44.3125C28.4382 44.8648 27.9904 45.3125 27.4382 45.3125H17.334Z" fill="white"/>
</svg>
