<svg width="60" height="60" viewBox="0 0 60 60" fill="none" xmlns="http://www.w3.org/2000/svg">
<g clip-path="url(#clip0_11486_3059)">
<path d="M32.6051 13.8613C33.2718 13.4781 34.1035 13.9593 34.1035 14.7283V44.2717C34.1035 45.0407 33.2718 45.5219 32.6051 45.1387L20.3719 38.1064C20.2203 38.0193 20.0485 37.9734 19.8736 37.9734H14C13.4477 37.9734 13 37.5257 13 36.9734V22.0266C13 21.4743 13.4477 21.0266 14 21.0266H19.8736C20.0485 21.0266 20.2203 20.9807 20.3719 20.8936L32.6051 13.8613ZM19.0281 25.1078C19.0281 24.5556 18.5803 24.1078 18.0281 24.1078H17.0148C16.4625 24.1078 16.0148 24.5556 16.0148 25.1078V33.8922C16.0148 34.4444 16.4625 34.8922 17.0148 34.8922H18.0281C18.5803 34.8922 19.0281 34.4444 19.0281 33.8922V25.1078ZM22.0428 34.9529C22.0428 35.3108 22.2342 35.6415 22.5445 35.8199L29.5904 39.8698C30.257 40.253 31.0887 39.7718 31.0887 39.0029V19.9969C31.0887 19.228 30.2571 18.7468 29.5905 19.1298L22.5446 23.1786C22.2342 23.357 22.0428 23.6877 22.0428 24.0457V34.9529ZM36.7582 24.7841C37.1503 24.3834 37.7952 24.3832 38.1875 24.7838L39.9553 26.5888C40.3475 26.9893 40.9922 26.9892 41.3843 26.5886L43.1528 24.7821C43.5448 24.3816 44.1894 24.3814 44.5817 24.7817L45.3149 25.5301C45.6956 25.9186 45.6959 26.5402 45.3156 26.9291L43.4853 28.8006C43.1051 29.1894 43.1052 29.8106 43.4854 30.1992L45.3142 32.0683C45.6945 32.457 45.6945 33.0783 45.3142 33.467L44.5818 34.2156C44.1896 34.6164 43.5445 34.6164 43.1523 34.2156L41.3846 32.409C40.9924 32.0081 40.3473 32.0081 39.9551 32.409L38.1872 34.2158C37.7951 34.6166 37.1502 34.6167 36.7579 34.2161L36.0248 33.4673C35.6441 33.0786 35.6442 32.4568 36.0249 32.068L37.8552 30.1992C38.2357 29.8106 38.2359 29.1892 37.8556 28.8003L36.0267 26.9302C35.6465 26.5415 35.6466 25.9202 36.0269 25.5316L36.7582 24.7841Z" fill="white"/>
</g>
<defs>
<clipPath id="clip0_11486_3059">
<rect width="35" height="35" fill="white" transform="translate(12.5 12.5)"/>
</clipPath>
</defs>
</svg>
