<svg width="60" height="60" viewBox="0 0 60 60" fill="none" xmlns="http://www.w3.org/2000/svg">
<g clip-path="url(#clip0_11486_3053)">
<path d="M35.2122 13.8318C35.8788 13.4592 36.7002 13.941 36.7002 14.7047V44.2953C36.7002 45.059 35.8788 45.5408 35.2122 45.1682L22.5698 38.1005C22.4207 38.0172 22.2527 37.9734 22.0819 37.9734H16C15.4477 37.9734 15 37.5257 15 36.9734V22.0266C15 21.4743 15.4477 21.0266 16 21.0266H22.0819C22.2527 21.0266 22.4207 20.9828 22.5698 20.8995L35.2122 13.8318ZM21.1985 25.1078C21.1985 24.5556 20.7508 24.1078 20.1985 24.1078H19.1C18.5477 24.1078 18.1 24.5556 18.1 25.1078V33.8922C18.1 34.4444 18.5477 34.8922 19.1 34.8922H20.1985C20.7508 34.8922 21.1985 34.4444 21.1985 33.8922V25.1078ZM24.2985 34.9449C24.2985 35.3071 24.4944 35.641 24.8106 35.8178L32.1122 39.8993C32.7788 40.272 33.6002 39.7901 33.6002 39.0265V19.9733C33.6002 19.2097 32.7789 18.7279 32.1123 19.1004L24.8107 23.1807C24.4945 23.3575 24.2985 23.6914 24.2985 24.0537V34.9449ZM41.7024 23.1185C42.0924 22.7308 42.7223 22.7308 43.1123 23.1185L43.5032 23.507C45.1019 25.0961 46 27.2512 46 29.4985C46 31.7457 45.1019 33.9009 43.5032 35.4899L43.1123 35.8785C42.7223 36.2661 42.0924 36.2661 41.7024 35.8785L40.9292 35.11C40.5358 34.7189 40.5358 34.0825 40.9292 33.6914L41.3115 33.3115C41.8153 32.8108 42.215 32.2163 42.4876 31.5621C42.7603 30.9078 42.9006 30.2066 42.9006 29.4985C42.9006 28.7903 42.7603 28.0891 42.4876 27.4348C42.215 26.7806 41.8153 26.1862 41.3115 25.6854L40.9292 25.3055C40.5358 24.9145 40.5358 24.278 40.9292 23.887L41.7024 23.1185Z" fill="white"/>
</g>
<defs>
<clipPath id="clip0_11486_3053">
<rect width="35" height="35" fill="white" transform="translate(12.5 12.5)"/>
</clipPath>
</defs>
</svg>
